<svg width="512" height="512" viewBox="0 0 512 512" fill="none" xmlns="http://www.w3.org/2000/svg">
<g clip-path="url(#clip0_1_2)">
<path d="M256 512C397.385 512 512 397.385 512 256C512 114.615 397.385 0 256 0C114.615 0 0 114.615 0 256C0 397.385 114.615 512 256 512Z" fill="#0B0F12"/>
<path d="M256 512C397.385 512 512 397.385 512 256C512 114.615 397.385 0 256 0C114.615 0 0 114.615 0 256C0 397.385 114.615 512 256 512Z" fill="url(#paint0_radial_1_2)"/>
<g opacity="0.6" filter="url(#filter0_f_1_2)">
<path d="M256 154L280 234L360 254L280 274L256 354L232 274L152 254L232 234L256 154Z" fill="#36E2B4"/>
</g>
<path d="M256 154L276 228L352 248L276 268L256 342L236 268L160 248L236 228L256 154Z" fill="url(#paint1_linear_1_2)"/>
</g>
<defs>
<filter id="filter0_f_1_2" x="120" y="122" width="272" height="264" filterUnits="userSpaceOnUse" color-interpolation-filters="sRGB">
<feFlood flood-opacity="0" result="BackgroundImageFix"/>
<feBlend mode="normal" in="SourceGraphic" in2="BackgroundImageFix" result="shape"/>
<feGaussianBlur stdDeviation="16" result="effect1_foregroundBlur_1_2"/>
</filter>
<radialGradient id="paint0_radial_1_2" cx="0" cy="0" r="1" gradientUnits="userSpaceOnUse" gradientTransform="translate(256 256) rotate(90) scale(256)">
<stop offset="0.65" stop-color="#36E2B4" stop-opacity="0.1"/>
<stop offset="1" stop-color="#36E2B4" stop-opacity="0"/>
</radialGradient>
<linearGradient id="paint1_linear_1_2" x1="176" y1="194" x2="336" y2="354" gradientUnits="userSpaceOnUse">
<stop stop-color="#36E2B4"/>
<stop offset="1" stop-color="#5B8CFF"/>
</linearGradient>
<clipPath id="clip0_1_2">
<rect width="512" height="512" fill="white"/>
</clipPath>
</defs>
</svg>
