<svg width="120" height="32" viewBox="0 0 120 32" fill="none" xmlns="http://www.w3.org/2000/svg">
  <!-- Star with natural color mixing -->
  <g transform="translate(62, 4)">
    <!-- Elegant outer glow -->
    <circle cx="4" cy="4" r="8" fill="#36E2B4" opacity="0.15"/>
    <circle cx="4" cy="4" r="6" fill="#5B8CFF" opacity="0.1"/>
    
    <!-- Main star with gradient effect -->
    <path d="M4 0L5.5 3L9 3L6 5L7.5 8L4 6L0.5 8L2 5L-1 3L2.5 3L4 0Z" fill="#36E2B4" opacity="1"/>
    <path d="M4 1L5 3L8 3L6 4.5L7 7L4 5.5L1 7L2 4.5L0 3L3 3L4 1Z" fill="#47C8D1" opacity="0.8"/>
    <path d="M4 2L4.5 3.5L6 3.5L4.5 4.5L5 6L4 5L3 6L3.5 4.5L2 3.5L3.5 3.5L4 2Z" fill="#5B8CFF" opacity="0.7"/>
    
    <!-- Natural center glow -->
    <circle cx="4" cy="4" r="1.5" fill="#36E2B4" opacity="0.6"/>
    
    <!-- Subtle sparkles -->
    <circle cx="7" cy="2" r="0.6" fill="#5B8CFF" opacity="0.6"/>
    <circle cx="1" cy="6" r="0.5" fill="#36E2B4" opacity="0.5"/>
  </g>
  
  <!-- PLEIA text -->
  <text x="0" y="22" font-family="Space Grotesk, Inter, system-ui" font-size="18" font-weight="600" letter-spacing="0.02em" fill="#F5F7FA">
    PLEIA
  </text>
  
  <!-- by JeyLabbb -->
  <text x="0" y="30" font-family="Inter, system-ui" font-size="10" font-weight="400" opacity="0.7" fill="#C7D0DA">
    by JeyLabbb
  </text>
</svg>
