<svg width="120" height="32" viewBox="0 0 120 32" fill="none" xmlns="http://www.w3.org/2000/svg">
  <!-- Enhanced green star with blue center -->
  <g transform="translate(62, 4)">
    <!-- Green outer glow -->
    <circle cx="4" cy="4" r="8" fill="#36E2B4" opacity="0.2"/>
    <circle cx="4" cy="4" r="6" fill="#2DD4BF" opacity="0.15"/>
    
    <!-- Main green star -->
    <path d="M4 0L5.5 3L9 3L6 5L7.5 8L4 6L0.5 8L2 5L-1 3L2.5 3L4 0Z" fill="#36E2B4" opacity="1"/>
    <path d="M4 1L5 3L8 3L6 4.5L7 7L4 5.5L1 7L2 4.5L0 3L3 3L4 1Z" fill="#2DD4BF" opacity="0.9"/>
    
    <!-- Mini blue star in center -->
    <path d="M4 3L4.5 4.5L6 4.5L4.5 5.5L5 7L4 6L3 7L3.5 5.5L2 4.5L3.5 4.5L4 3Z" fill="#5B8CFF" opacity="1"/>
    <path d="M4 3.5L4.3 4.3L5 4.3L4.3 4.8L4.6 5.5L4 5L3.4 5.5L3.7 4.8L3 4.3L3.7 4.3L4 3.5Z" fill="#3B82F6" opacity="0.8"/>
    
    <!-- Center glow -->
    <circle cx="4" cy="4" r="1.5" fill="#36E2B4" opacity="0.4"/>
    
    <!-- Green sparkles -->
    <circle cx="7" cy="2" r="0.6" fill="#2DD4BF" opacity="0.7"/>
    <circle cx="1" cy="6" r="0.5" fill="#36E2B4" opacity="0.6"/>
    <circle cx="8" cy="5" r="0.4" fill="#36E2B4" opacity="0.5"/>
  </g>
  
  <!-- PLEIA text -->
  <text x="0" y="22" font-family="Space Grotesk, Inter, system-ui" font-size="18" font-weight="600" letter-spacing="0.02em" fill="#F5F7FA">
    PLEIA
  </text>
  
  <!-- by JeyLabbb -->
  <text x="0" y="30" font-family="Inter, system-ui" font-size="10" font-weight="400" opacity="0.7" fill="#C7D0DA">
    by JeyLabbb
  </text>
</svg>
