<svg width="1200" height="2000" viewBox="0 0 1200 2000" xmlns="http://www.w3.org/2000/svg">
  <defs>
    <style>
      .page-title { font-family: "Space Grotesk", -apple-system, BlinkMacSystemFont, "Segoe UI", Roboto, sans-serif; font-size: 48px; font-weight: 700; fill: #F5F7FA; }
      .card-title { font-family: Inter, -apple-system, BlinkMacSystemFont, "Segoe UI", Roboto, sans-serif; font-size: 18px; font-weight: 700; fill: #F5F7FA; }
      .card-text { font-family: Inter, -apple-system, BlinkMacSystemFont, "Segoe UI", Roboto, sans-serif; font-size: 14px; font-weight: 400; fill: #C7D0DA; }
      .card-meta { font-family: Inter, -apple-system, BlinkMacSystemFont, "Segoe UI", Roboto, sans-serif; font-size: 12px; font-weight: 400; fill: rgba(107,114,128,1); }
    </style>
    <linearGradient id="playlistGradient" x1="0%" y1="0%" x2="100%" y2="100%">
      <stop offset="0%" style="stop-color:#10B981;stop-opacity:1" />
      <stop offset="100%" style="stop-color:#06B6D4;stop-opacity:1" />
    </linearGradient>
  </defs>
  
  <rect width="1200" height="2000" fill="#0B0F12"/>
  
  <!-- Page Title -->
  <text x="48" y="100" class="page-title">Mis Playlists</text>
  
  <!-- Playlist Card 1 -->
  <rect x="48" y="150" width="1104" height="200" fill="rgba(31,41,55,0.5)" stroke="rgba(55,65,81,1)" stroke-width="1" rx="12"/>
  <rect x="72" y="174" width="64" height="64" fill="url(#playlistGradient)" rx="8"/>
  <text x="104" y="210" class="card-title" text-anchor="middle">🎵</text>
  <text x="152" y="200" class="card-title">Fiesta Reggaeton</text>
  <text x="152" y="220" class="card-text">"reggaeton para salir de fiesta"</text>
  <text x="152" y="240" class="card-meta">24 canciones • Hace 2 días</text>
  
  <!-- Privacy Toggle -->
  <rect x="1000" y="200" width="32" height="16" fill="#10B981" rx="8"/>
  <circle cx="1014" cy="208" r="6" fill="white"/>
  
  <!-- Playlist Card 2 -->
  <rect x="48" y="370" width="1104" height="200" fill="rgba(31,41,55,0.5)" stroke="rgba(55,65,81,1)" stroke-width="1" rx="12"/>
  <rect x="72" y="394" width="64" height="64" fill="url(#playlistGradient)" rx="8"/>
  <text x="104" y="430" class="card-title" text-anchor="middle">🎵</text>
  <text x="152" y="420" class="card-title">Chill Evening</text>
  <text x="152" y="440" class="card-text">"música relajante para la tarde"</text>
  <text x="152" y="460" class="card-meta">18 canciones • Hace 1 semana</text>
  
  <!-- Privacy Toggle -->
  <rect x="1000" y="420" width="32" height="16" fill="#10B981" rx="8"/>
  <circle cx="1014" cy="428" r="6" fill="white"/>
  
  <!-- Playlist Card 3 -->
  <rect x="48" y="590" width="1104" height="200" fill="rgba(31,41,55,0.5)" stroke="rgba(55,65,81,1)" stroke-width="1" rx="12"/>
  <rect x="72" y="614" width="64" height="64" fill="url(#playlistGradient)" rx="8"/>
  <text x="104" y="650" class="card-title" text-anchor="middle">🎵</text>
  <text x="152" y="640" class="card-title">Workout Energy</text>
  <text x="152" y="660" class="card-text">"música energética para entrenar"</text>
  <text x="152" y="680" class="card-meta">32 canciones • Hace 3 días</text>
  
  <!-- Privacy Toggle -->
  <rect x="1000" y="640" width="32" height="16" fill="#10B981" rx="8"/>
  <circle cx="1014" cy="648" r="6" fill="white"/>
  
  <!-- Empty State (if no playlists) -->
  <rect x="48" y="850" width="1104" height="300" fill="#1A232B" rx="16"/>
  <text x="600" y="950" class="page-title" font-size="48" text-anchor="middle">📚</text>
  <text x="600" y="1000" class="page-title" font-size="32" text-anchor="middle">Mis Playlists</text>
  <text x="600" y="1030" class="card-text" text-anchor="middle">Inicia sesión para ver todas tus playlists creadas</text>
  
  <!-- Connect Button -->
  <rect x="500" y="1080" width="200" height="60" fill="#10B981" rx="12"/>
  <text x="600" y="1120" class="card-title" font-size="18" fill="white" text-anchor="middle">🎵 Conectar con Spotify</text>
</svg>