<svg width="1200" height="2000" viewBox="0 0 1200 2000" xmlns="http://www.w3.org/2000/svg">
  <defs>
    <style>
      .component-title { font-family: "Space Grotesk", -apple-system, BlinkMacSystemFont, "Segoe UI", Roboto, sans-serif; font-size: 24px; font-weight: 700; fill: #F5F7FA; }
      .component-label { font-family: Inter, -apple-system, BlinkMacSystemFont, "Segoe UI", Roboto, sans-serif; font-size: 14px; font-weight: 500; fill: #C7D0DA; }
      .component-text { font-family: Inter, -apple-system, BlinkMacSystemFont, "Segoe UI", Roboto, sans-serif; font-size: 12px; font-weight: 400; fill: #F5F7FA; }
    </style>
    <linearGradient id="componentGradient" x1="0%" y1="0%" x2="100%" y2="100%">
      <stop offset="0%" style="stop-color:#47C8D1;stop-opacity:1" />
      <stop offset="100%" style="stop-color:#5B8CFF;stop-opacity:1" />
    </linearGradient>
  </defs>
  
  <rect width="1200" height="2000" fill="#0B0F12"/>
  
  <!-- Title -->
  <text x="48" y="60" class="component-title">Component Library</text>
  
  <!-- Buttons Section -->
  <text x="48" y="100" class="component-label">Buttons</text>
  
  <!-- Primary Button -->
  <rect x="48" y="120" width="200" height="50" fill="url(#componentGradient)" rx="12"/>
  <text x="148" y="150" class="component-text" font-weight="600" fill="#0B0F12" text-anchor="middle">Primary Button</text>
  
  <!-- Secondary Button -->
  <rect x="268" y="120" width="200" height="50" fill="transparent" stroke="rgba(255,255,255,0.2)" stroke-width="1" rx="12"/>
  <text x="368" y="150" class="component-text" text-anchor="middle">Secondary Button</text>
  
  <!-- Input Fields Section -->
  <text x="48" y="220" class="component-label">Input Fields</text>
  
  <!-- Text Input -->
  <rect x="48" y="240" width="400" height="50" fill="#1A232B" stroke="rgba(255,255,255,0.1)" stroke-width="1" rx="12"/>
  <text x="68" y="270" class="component-text" fill="rgba(199,208,218,0.6)">Placeholder text...</text>
  
  <!-- Textarea -->
  <rect x="48" y="310" width="400" height="100" fill="#1A232B" stroke="rgba(255,255,255,0.1)" stroke-width="1" rx="12"/>
  <text x="68" y="340" class="component-text" fill="rgba(199,208,218,0.6)">Multiline text area...</text>
  
  <!-- Cards Section -->
  <text x="48" y="450" class="component-label">Cards</text>
  
  <!-- Basic Card -->
  <rect x="48" y="470" width="300" height="150" fill="#1A232B" rx="12"/>
  <text x="68" y="500" class="component-text" font-weight="600">Card Title</text>
  <text x="68" y="520" class="component-text" fill="#C7D0DA">Card description text goes here</text>
  
  <!-- Song Card -->
  <rect x="368" y="470" width="300" height="80" fill="linear-gradient(135deg, rgba(15,15,16,0.95), rgba(20,20,22,0.98))" stroke="rgba(255,255,255,0.06)" stroke-width="1" rx="12"/>
  <rect x="368" y="470" width="3" height="80" fill="linear-gradient(to bottom, #1DB954, #22D3EE)" rx="0"/>
  <text x="388" y="495" class="component-text" font-weight="600">Song Title</text>
  <text x="388" y="515" class="component-text" fill="rgba(255,255,255,0.55)">Artist Name</text>
  <rect x="620" y="485" width="40" height="30" fill="rgba(71,200,209,0.1)" stroke="rgba(71,200,209,0.2)" stroke-width="1" rx="8"/>
  <text x="640" y="505" class="component-text" font-size="10" font-weight="700" fill="#47C8D1" text-anchor="middle">OPEN</text>
  
  <!-- Playlist Card -->
  <rect x="688" y="470" width="300" height="150" fill="rgba(31,41,55,0.5)" stroke="rgba(55,65,81,1)" stroke-width="1" rx="12"/>
  <rect x="712" y="494" width="64" height="64" fill="url(#componentGradient)" rx="8"/>
  <text x="744" y="530" class="component-text" font-size="24" text-anchor="middle">🎵</text>
  <text x="792" y="520" class="component-text" font-weight="700">Playlist Name</text>
  <text x="792" y="540" class="component-text" fill="#C7D0DA">"playlist description"</text>
  <text x="792" y="560" class="component-text" font-size="10" fill="rgba(107,114,128,1)">24 canciones • Hace 2 días</text>
  
  <!-- Modals Section -->
  <text x="48" y="660" class="component-label">Modals</text>
  
  <!-- Modal Background -->
  <rect x="48" y="680" width="600" height="400" fill="rgba(0,0,0,0.8)" rx="16"/>
  <rect x="68" y="700" width="560" height="360" fill="#1A232B" rx="12"/>
  
  <!-- Modal Header -->
  <rect x="68" y="700" width="560" height="80" fill="linear-gradient(135deg, rgba(16,185,129,0.2), rgba(6,182,212,0.2))" rx="12"/>
  <text x="88" y="740" class="component-text" font-weight="700">Modal Title</text>
  <text x="88" y="760" class="component-text" fill="#C7D0DA">Modal subtitle</text>
  
  <!-- Modal Content -->
  <text x="88" y="820" class="component-text">Modal content goes here...</text>
  
  <!-- Modal Footer -->
  <rect x="88" y="1000" width="200" height="40" fill="url(#componentGradient)" rx="8"/>
  <text x="188" y="1025" class="component-text" font-weight="600" fill="#0B0F12" text-anchor="middle">Confirm</text>
  
  <rect x="308" y="1000" width="200" height="40" fill="transparent" stroke="rgba(255,255,255,0.2)" stroke-width="1" rx="8"/>
  <text x="408" y="1025" class="component-text" text-anchor="middle">Cancel</text>
</svg>