<svg width="1200" height="4000" viewBox="0 0 1200 4000" xmlns="http://www.w3.org/2000/svg">
  <defs>
    <style>
      .main-title { font-family: "Space Grotesk", -apple-system, BlinkMacSystemFont, "Segoe UI", Roboto, sans-serif; font-size: 48px; font-weight: 700; fill: #F5F7FA; letter-spacing: -0.02em; line-height: 1.2; }
      .body-text { font-family: Inter, -apple-system, BlinkMacSystemFont, "Segoe UI", Roboto, sans-serif; font-size: 16px; font-weight: 400; fill: #F5F7FA; line-height: 1.5; }
      .label-text { font-family: Inter, -apple-system, BlinkMacSystemFont, "Segoe UI", Roboto, sans-serif; font-size: 14px; font-weight: 500; fill: #C7D0DA; }
      .button-text { font-family: "Space Grotesk", -apple-system, BlinkMacSystemFont, "Segoe UI", Roboto, sans-serif; font-size: 16px; font-weight: 600; fill: #0B0F12; letter-spacing: 0.01em; }
      .song-title { font-family: Inter, -apple-system, BlinkMacSystemFont, "Segoe UI", Roboto, sans-serif; font-size: 16px; font-weight: 600; fill: white; }
      .song-artist { font-family: Inter, -apple-system, BlinkMacSystemFont, "Segoe UI", Roboto, sans-serif; font-size: 14px; font-weight: 400; fill: rgba(255,255,255,0.55); }
      .open-btn { font-family: Inter, -apple-system, BlinkMacSystemFont, "Segoe UI", Roboto, sans-serif; font-size: 11px; font-weight: 700; fill: #47C8D1; }
      .remove-btn { font-family: Inter, -apple-system, BlinkMacSystemFont, "Segoe UI", Roboto, sans-serif; font-size: 16px; font-weight: 700; fill: rgba(255,77,77,0.8); }
    </style>
    <linearGradient id="mainGradient" x1="0%" y1="0%" x2="100%" y2="100%">
      <stop offset="0%" style="stop-color:#47C8D1;stop-opacity:1" />
      <stop offset="100%" style="stop-color:#5B8CFF;stop-opacity:1" />
    </linearGradient>
    <linearGradient id="cardBg" x1="0%" y1="0%" x2="100%" y2="100%">
      <stop offset="0%" style="stop-color:rgba(15,15,16,0.95);stop-opacity:1" />
      <stop offset="100%" style="stop-color:rgba(20,20,22,0.98);stop-opacity:1" />
    </linearGradient>
    <linearGradient id="accentBorder" x1="0%" y1="0%" x2="0%" y2="100%">
      <stop offset="0%" style="stop-color:#1DB954;stop-opacity:1" />
      <stop offset="100%" style="stop-color:#22D3EE;stop-opacity:1" />
    </linearGradient>
  </defs>
  
  <!-- Background -->
  <rect width="1200" height="4000" fill="#0B0F12"/>
  
  <!-- Navigation -->
  <rect x="0" y="0" width="1200" height="64" fill="#0B0F12" stroke="rgba(255,255,255,0.1)" stroke-width="1"/>
  <rect x="24" y="24" width="24" height="16" fill="none" stroke="#F5F7FA" stroke-width="2" rx="2"/>
  <line x1="30" y1="28" x2="42" y2="28" stroke="#F5F7FA" stroke-width="2"/>
  <line x1="30" y1="32" x2="42" y2="32" stroke="#F5F7FA" stroke-width="2"/>
  <line x1="30" y1="36" x2="42" y2="36" stroke="#F5F7FA" stroke-width="2"/>
  <text x="80" y="45" class="main-title" font-size="24" font-weight="700">PLEIA</text>
  <rect x="1000" y="20" width="160" height="24" fill="url(#mainGradient)" rx="12"/>
  <text x="1080" y="35" class="button-text" font-size="14" text-anchor="middle">Mi perfil</text>
  
  <!-- Prompt Card -->
  <rect x="48" y="96" width="1104" height="600" fill="#1A232B" rx="16"/>
  <text x="72" y="140" class="main-title">¿Qué tipo de playlist quieres?</text>
  <rect x="72" y="180" width="1056" height="120" fill="#1A232B" stroke="rgba(255,255,255,0.1)" stroke-width="1" rx="12"/>
  <text x="88" y="220" class="body-text">reggaeton para salir de fiesta</text>
  
  <!-- Examples -->
  <text x="72" y="340" class="label-text">Prueba estos ejemplos:</text>
  <rect x="72" y="360" width="280" height="32" fill="#1A232B" stroke="rgba(255,255,255,0.1)" stroke-width="1" rx="16"/>
  <text x="88" y="380" class="label-text">calentar para Primavera Sound 2024</text>
  
  <!-- Controls -->
  <text x="72" y="480" class="label-text">Canciones:</text>
  <rect x="200" y="460" width="80" height="40" fill="#1A232B" stroke="rgba(255,255,255,0.1)" stroke-width="1" rx="8"/>
  <text x="240" y="485" class="body-text" text-anchor="middle">50</text>
  
  <!-- Tips Button -->
  <rect x="300" y="460" width="120" height="40" fill="#374151" stroke="#4B5563" stroke-width="1" rx="20"/>
  <text x="320" y="485" class="body-text" fill="white">💡 Consejos</text>
  
  <!-- Generate Button -->
  <rect x="440" y="460" width="200" height="50" fill="url(#mainGradient)" rx="16"/>
  <text x="540" y="490" class="button-text" text-anchor="middle">Generar Playlist</text>
  
  <!-- Progress Card -->
  <rect x="48" y="720" width="1104" height="200" fill="#1A232B" rx="16"/>
  <text x="72" y="760" class="main-title" font-size="20" font-weight="600">Generando...</text>
  
  <!-- Progress Bar -->
  <rect x="72" y="800" width="1056" height="8" fill="rgba(255,255,255,0.1)" rx="4"/>
  <rect x="72" y="800" width="800" height="8" fill="url(#mainGradient)" rx="4"/>
  
  <!-- Status Text -->
  <text x="72" y="840" class="body-text">🎵 Found 45/50 tracks (90%)</text>
  
  <!-- Playlist Creation Card -->
  <rect x="48" y="960" width="1104" height="300" fill="#1A232B" rx="16"/>
  <text x="72" y="1000" class="main-title" font-size="20" font-weight="600">Crear Playlist (50 tracks)</text>
  
  <!-- Playlist Name Input -->
  <text x="72" y="1040" class="label-text">Nombre de playlist:</text>
  <rect x="72" y="1060" width="500" height="50" fill="#1A232B" stroke="rgba(255,255,255,0.1)" stroke-width="1" rx="12"/>
  <text x="88" y="1090" class="body-text" fill="rgba(199,208,218,0.6)">Dejar vacío para nombre generado por IA</text>
  
  <!-- Create Button -->
  <rect x="600" y="1060" width="200" height="50" fill="#47C8D1" rx="12"/>
  <text x="700" y="1090" class="button-text" text-anchor="middle">Crear en Spotify</text>
  
  <!-- Control Buttons -->
  <rect x="72" y="1200" width="120" height="40" fill="transparent" stroke="rgba(199,208,218,0.2)" stroke-width="1" rx="8"/>
  <text x="132" y="1225" class="body-text" fill="rgba(199,208,218,0.3)">🎛️ Refine</text>
  
  <rect x="210" y="1200" width="100" height="40" fill="transparent" stroke="rgba(199,208,218,0.2)" stroke-width="1" rx="8"/>
  <text x="260" y="1225" class="body-text" fill="rgba(199,208,218,0.3)">+5 Tracks</text>
  
  <text x="330" y="1225" class="body-text" fill="rgba(199,208,218,0.6)">50/200 tracks</text>
  
  <!-- Results Card -->
  <rect x="48" y="1280" width="1104" height="2000" fill="#1A232B" rx="16"/>
  <text x="72" y="1320" class="main-title" font-size="20" font-weight="600">Canciones generadas (50 tracks)</text>
  
  <!-- Song Cards -->
  <!-- Song 1 -->
  <rect x="72" y="1360" width="1056" height="80" fill="url(#cardBg)" stroke="rgba(255,255,255,0.06)" stroke-width="1" rx="12"/>
  <rect x="72" y="1360" width="3" height="80" fill="url(#accentBorder)" rx="0"/>
  <rect x="88" y="1380" width="48" height="48" fill="rgba(255,255,255,0.1)" rx="8"/>
  <text x="112" y="1410" class="song-title">Gasolina</text>
  <text x="112" y="1430" class="song-artist">Daddy Yankee</text>
  <rect x="1000" y="1380" width="60" height="40" fill="rgba(71,200,209,0.1)" stroke="rgba(71,200,209,0.2)" stroke-width="1" rx="8"/>
  <text x="1030" y="1405" class="open-btn" text-anchor="middle">OPEN</text>
  <rect x="1080" y="1380" width="40" height="40" fill="rgba(255,77,77,0.08)" stroke="rgba(255,77,77,0.15)" stroke-width="1" rx="8"/>
  <text x="1100" y="1405" class="remove-btn" text-anchor="middle">✕</text>
  
  <!-- Song 2 -->
  <rect x="72" y="1460" width="1056" height="80" fill="url(#cardBg)" stroke="rgba(255,255,255,0.06)" stroke-width="1" rx="12"/>
  <rect x="72" y="1460" width="3" height="80" fill="url(#accentBorder)" rx="0"/>
  <rect x="88" y="1480" width="48" height="48" fill="rgba(255,255,255,0.1)" rx="8"/>
  <text x="112" y="1510" class="song-title">Dakiti</text>
  <text x="112" y="1530" class="song-artist">Bad Bunny, Jhay Cortez</text>
  <rect x="1000" y="1480" width="60" height="40" fill="rgba(71,200,209,0.1)" stroke="rgba(71,200,209,0.2)" stroke-width="1" rx="8"/>
  <text x="1030" y="1505" class="open-btn" text-anchor="middle">OPEN</text>
  <rect x="1080" y="1480" width="40" height="40" fill="rgba(255,77,77,0.08)" stroke="rgba(255,77,77,0.15)" stroke-width="1" rx="8"/>
  <text x="1100" y="1505" class="remove-btn" text-anchor="middle">✕</text>
  
  <!-- Song 3 -->
  <rect x="72" y="1560" width="1056" height="80" fill="url(#cardBg)" stroke="rgba(255,255,255,0.06)" stroke-width="1" rx="12"/>
  <rect x="72" y="1560" width="3" height="80" fill="url(#accentBorder)" rx="0"/>
  <rect x="88" y="1580" width="48" height="48" fill="rgba(255,255,255,0.1)" rx="8"/>
  <text x="112" y="1610" class="song-title">Con Calma</text>
  <text x="112" y="1630" class="song-artist">Daddy Yankee, Snow</text>
  <rect x="1000" y="1580" width="60" height="40" fill="rgba(71,200,209,0.1)" stroke="rgba(71,200,209,0.2)" stroke-width="1" rx="8"/>
  <text x="1030" y="1605" class="open-btn" text-anchor="middle">OPEN</text>
  <rect x="1080" y="1580" width="40" height="40" fill="rgba(255,77,77,0.08)" stroke="rgba(255,77,77,0.15)" stroke-width="1" rx="8"/>
  <text x="1100" y="1605" class="remove-btn" text-anchor="middle">✕</text>
  
  <!-- Song 4 -->
  <rect x="72" y="1660" width="1056" height="80" fill="url(#cardBg)" stroke="rgba(255,255,255,0.06)" stroke-width="1" rx="12"/>
  <rect x="72" y="1660" width="3" height="80" fill="url(#accentBorder)" rx="0"/>
  <rect x="88" y="1680" width="48" height="48" fill="rgba(255,255,255,0.1)" rx="8"/>
  <text x="112" y="1710" class="song-title">Tusa</text>
  <text x="112" y="1730" class="song-artist">Karol G, Nicki Minaj</text>
  <rect x="1000" y="1680" width="60" height="40" fill="rgba(71,200,209,0.1)" stroke="rgba(71,200,209,0.2)" stroke-width="1" rx="8"/>
  <text x="1030" y="1705" class="open-btn" text-anchor="middle">OPEN</text>
  <rect x="1080" y="1680" width="40" height="40" fill="rgba(255,77,77,0.08)" stroke="rgba(255,77,77,0.15)" stroke-width="1" rx="8"/>
  <text x="1100" y="1705" class="remove-btn" text-anchor="middle">✕</text>
  
  <!-- Song 5 -->
  <rect x="72" y="1760" width="1056" height="80" fill="url(#cardBg)" stroke="rgba(255,255,255,0.06)" stroke-width="1" rx="12"/>
  <rect x="72" y="1760" width="3" height="80" fill="url(#accentBorder)" rx="0"/>
  <rect x="88" y="1780" width="48" height="48" fill="rgba(255,255,255,0.1)" rx="8"/>
  <text x="112" y="1810" class="song-title">Yo Perreo Sola</text>
  <text x="112" y="1830" class="song-artist">Bad Bunny</text>
  <rect x="1000" y="1780" width="60" height="40" fill="rgba(71,200,209,0.1)" stroke="rgba(71,200,209,0.2)" stroke-width="1" rx="8"/>
  <text x="1030" y="1805" class="open-btn" text-anchor="middle">OPEN</text>
  <rect x="1080" y="1780" width="40" height="40" fill="rgba(255,77,77,0.08)" stroke="rgba(255,77,77,0.15)" stroke-width="1" rx="8"/>
  <text x="1100" y="1805" class="remove-btn" text-anchor="middle">✕</text>
  
  <!-- More songs indicator -->
  <text x="600" y="1900" class="body-text" fill="rgba(199,208,218,0.6)" text-anchor="middle">... y 45 canciones más</text>
  
  <!-- Scroll indicator -->
  <rect x="1100" y="1400" width="4" height="400" fill="rgba(255,255,255,0.1)" rx="2"/>
  <rect x="1100" y="1400" width="4" height="100" fill="rgba(255,255,255,0.3)" rx="2"/>
</svg>